<svg xmlns="http://www.w3.org/2000/svg" xmlns:xlink="http://www.w3.org/1999/xlink"
    zoomAndPan="magnify" viewBox="0 0 375 374.999991" preserveAspectRatio="xMidYMid meet"
    version="1.0">
    <defs>
        <g />
        <clipPath id="80968b9ed5">
            <path d="M 29 140 L 126 140 L 126 235.328125 L 29 235.328125 Z M 29 140 "
                clip-rule="nonzero" />
        </clipPath>
    </defs>
    <rect x="-37.5" width="450" fill="#ffffff" y="-37.499999" height="449.999989" fill-opacity="1" />
    <rect x="-37.5" width="450" fill="#233876" y="-37.499999" height="449.999989" fill-opacity="1" />
    <path fill="#5ce1e6"
        d="M 123.558594 170.679688 C 123.496094 170.570312 123.40625 170.484375 123.34375 170.375 C 121.902344 168.542969 119.484375 167.542969 117.195312 167.804688 C 114.664062 168.085938 112.789062 169.328125 111.785156 170.046875 C 111.785156 170.046875 105.617188 174.429688 95.519531 178.640625 C 93.796875 179.359375 93.515625 179.074219 93.449219 178.988281 C 93.382812 178.902344 93.363281 178.769531 93.425781 178.597656 C 94.667969 174.300781 96.023438 170.003906 96.828125 165.621094 C 97.808594 160.761719 98.421875 155.832031 98.660156 150.882812 C 98.789062 148.375 98.769531 145.714844 97.4375 143.601562 C 95.367188 140.285156 90.070312 139.675781 87.277344 142.421875 C 85.535156 144.144531 84.902344 146.675781 84.378906 149.074219 C 83.703125 152.125 83.070312 155.199219 82.503906 158.273438 C 82.21875 159.824219 82 161.390625 81.804688 162.960938 C 81.542969 165.035156 81.433594 166.386719 80.910156 166.496094 C 80.714844 166.539062 80.367188 166.472656 79.800781 165.492188 C 79.210938 164.488281 78.644531 163.484375 78.03125 162.503906 C 76.921875 160.671875 75.765625 158.886719 74.542969 157.140625 C 72.125 153.628906 69.464844 150.273438 66.585938 147.089844 C 64.886719 145.191406 63.011719 143.316406 60.632812 142.445312 C 58.714844 141.746094 56.402344 141.878906 54.746094 143.121094 C 52.980469 144.40625 51.453125 145.519531 51.628906 147.984375 C 51.738281 149.507812 52.433594 150.949219 53.132812 152.320312 C 54.417969 154.785156 55.835938 157.207031 57.363281 159.539062 C 57.382812 159.582031 58.34375 160.976562 60.21875 163.746094 C 61.59375 165.753906 62.726562 167.433594 62.53125 167.585938 C 62.441406 167.648438 62.226562 167.324219 61.550781 166.996094 C 60.894531 166.691406 60.261719 166.386719 59.609375 166.125 C 58.300781 165.601562 56.96875 165.121094 55.617188 164.683594 C 52.9375 163.789062 50.1875 163.070312 47.417969 162.503906 C 45.71875 162.15625 44.019531 161.871094 42.316406 161.652344 C 40.269531 161.390625 38.109375 161.21875 36.191406 161.980469 C 34.011719 162.851562 32.351562 164.945312 32.003906 167.28125 C 31.675781 169.613281 32.660156 172.078125 34.511719 173.539062 C 35.972656 174.671875 37.824219 175.171875 39.613281 175.652344 C 45.785156 177.351562 51.824219 179.46875 57.710938 182.019531 C 57.1875 181.800781 54.984375 182.933594 54.417969 183.132812 C 53.21875 183.566406 52.042969 184.023438 50.863281 184.503906 C 48.511719 185.464844 46.199219 186.53125 43.953125 187.6875 C 39.746094 189.847656 34.707031 192.332031 31.566406 195.972656 C 29.277344 198.65625 28.820312 202.582031 31.175781 205.394531 C 32.703125 207.203125 35.1875 208.164062 37.519531 207.8125 C 39.570312 207.507812 41.378906 206.308594 43.144531 205.21875 C 47.636719 202.429688 52.414062 200.09375 57.382812 198.261719 C 59.042969 197.652344 60.589844 196.410156 61.179688 196.957031 C 61.789062 197.523438 60.808594 199.484375 60.457031 200.226562 C 56.054688 209.382812 55.355469 221.332031 55.246094 222.488281 C 54.898438 225.910156 54.855469 229.726562 57.078125 232.34375 C 59.914062 235.679688 66.0625 235.132812 68.265625 231.339844 C 69.203125 229.726562 69.441406 227.808594 69.703125 225.953125 C 70.53125 220.109375 71.296875 217.1875 71.296875 217.1875 C 72.515625 209.863281 72.820312 208.578125 73.410156 208.53125 C 74 208.46875 74.28125 209.730469 76.355469 213.527344 C 76.878906 214.507812 77.988281 216.511719 79.558594 218.933594 C 81.804688 222.421875 84.289062 225.714844 87.039062 228.832031 C 88.847656 230.882812 90.941406 232.953125 93.644531 233.457031 C 97.589844 234.152344 101.691406 230.445312 101.386719 226.457031 C 101.253906 224.886719 100.863281 223.753906 99.707031 221.746094 C 97.351562 217.667969 91.050781 209.339844 90.832031 208.335938 C 90.832031 208.335938 90.832031 208.316406 90.832031 208.292969 C 91.007812 207.902344 95.585938 209.949219 100.925781 211.609375 C 102.039062 211.957031 106.226562 213.046875 111.675781 213.917969 C 113.726562 214.246094 115.90625 214.484375 117.871094 213.765625 C 121.730469 212.328125 123.296875 206.789062 120.726562 203.5625 C 119.394531 201.882812 117.78125 200.988281 114.96875 200.050781 C 103.261719 196.191406 97.375 195.667969 97.265625 194.230469 C 97.175781 193.140625 100.535156 192.703125 108.078125 189.191406 C 108.515625 188.996094 113.179688 186.597656 118.808594 182.890625 C 121.117188 181.363281 123.515625 179.578125 124.453125 176.960938 C 125.152344 174.910156 124.824219 172.492188 123.558594 170.679688 Z M 123.558594 170.679688 "
        fill-opacity="1" fill-rule="nonzero" />
    <g clip-path="url(#80968b9ed5)">
        <path fill="#5ce1e6"
            d="M 62.203125 235.089844 C 60 235.089844 57.972656 234.21875 56.664062 232.691406 C 54.308594 229.902344 54.355469 225.933594 54.703125 222.421875 C 54.703125 222.355469 54.722656 222.246094 54.722656 222.074219 C 55.421875 213.394531 57.277344 205.546875 59.957031 199.964844 L 60.023438 199.832031 C 60.894531 197.980469 60.875 197.476562 60.808594 197.324219 C 60.566406 197.28125 59.804688 197.675781 59.28125 197.957031 C 58.757812 198.21875 58.167969 198.523438 57.582031 198.742188 C 52.652344 200.554688 47.898438 202.886719 43.453125 205.65625 L 43.058594 205.894531 C 41.378906 206.941406 39.636719 208.03125 37.609375 208.316406 C 35.101562 208.6875 32.417969 207.660156 30.761719 205.699219 C 28.363281 202.820312 28.515625 198.65625 31.152344 195.582031 C 34.226562 192.027344 38.960938 189.585938 43.144531 187.449219 L 43.691406 187.164062 C 45.980469 185.988281 48.3125 184.917969 50.648438 183.960938 C 51.910156 183.457031 53.066406 183 54.222656 182.585938 C 54.355469 182.542969 54.617188 182.433594 54.898438 182.300781 C 55.292969 182.128906 55.660156 181.976562 55.96875 181.84375 C 50.648438 179.621094 45.109375 177.703125 39.460938 176.152344 C 37.71875 175.675781 35.734375 175.152344 34.164062 173.953125 C 32.15625 172.382812 31.089844 169.722656 31.460938 167.191406 C 31.828125 164.664062 33.617188 162.417969 35.972656 161.457031 C 38.042969 160.628906 40.355469 160.847656 42.359375 161.085938 C 44.0625 161.304688 45.804688 161.589844 47.507812 161.9375 C 50.386719 162.527344 53.15625 163.265625 55.769531 164.140625 C 57.121094 164.574219 58.476562 165.054688 59.78125 165.601562 C 60.261719 165.796875 60.742188 166.015625 61.222656 166.234375 C 60.765625 165.511719 60.175781 164.664062 59.738281 164.03125 C 58.734375 162.546875 57.996094 161.457031 57.515625 160.761719 C 57.035156 160.039062 56.90625 159.867188 56.859375 159.800781 C 55.335938 157.46875 53.894531 155.027344 52.609375 152.539062 C 51.847656 151.035156 51.148438 149.574219 51.039062 147.984375 C 50.84375 145.214844 52.566406 143.972656 54.375 142.640625 C 56.078125 141.375 58.519531 141.070312 60.765625 141.898438 C 63.335938 142.835938 65.300781 144.863281 66.933594 146.695312 C 69.8125 149.902344 72.515625 153.304688 74.9375 156.8125 C 76.113281 158.492188 77.269531 160.257812 78.449219 162.199219 C 78.882812 162.898438 79.320312 163.636719 79.734375 164.359375 C 79.886719 164.640625 80.0625 164.925781 80.214844 165.207031 C 80.453125 165.621094 80.628906 165.820312 80.714844 165.882812 C 80.890625 165.511719 81.019531 164.445312 81.128906 163.484375 L 81.195312 162.875 C 81.433594 160.957031 81.652344 159.496094 81.890625 158.164062 C 82.4375 155.242188 83.070312 152.148438 83.765625 148.941406 C 84.335938 146.324219 85.011719 143.816406 86.820312 142.03125 C 88.257812 140.613281 90.417969 139.9375 92.640625 140.199219 C 94.867188 140.460938 96.761719 141.59375 97.832031 143.316406 C 99.269531 145.628906 99.269531 148.441406 99.140625 150.925781 C 98.898438 155.898438 98.289062 160.890625 97.308594 165.753906 C 96.632812 169.460938 95.542969 173.144531 94.496094 176.699219 C 94.320312 177.332031 94.125 177.941406 93.949219 178.574219 C 94.167969 178.53125 94.582031 178.441406 95.257812 178.160156 C 105.179688 174.015625 111.351562 169.679688 111.414062 169.632812 C 112.613281 168.761719 114.535156 167.585938 117.085938 167.300781 C 119.570312 167.019531 122.164062 168.109375 123.714844 170.070312 L 123.757812 170.136719 C 123.777344 170.179688 123.800781 170.203125 123.820312 170.246094 C 123.867188 170.289062 123.910156 170.355469 123.953125 170.441406 C 125.304688 172.382812 125.675781 174.953125 124.914062 177.199219 C 123.910156 180.035156 121.359375 181.886719 119.046875 183.414062 C 113.355469 187.164062 108.710938 189.542969 108.230469 189.757812 C 104.984375 191.265625 102.542969 192.203125 100.753906 192.878906 C 99.292969 193.445312 97.917969 193.96875 97.742188 194.25 C 97.917969 194.730469 100.644531 195.449219 103.304688 196.148438 C 106.183594 196.910156 110.105469 197.957031 115.078125 199.59375 C 118.175781 200.617188 119.746094 201.597656 121.097656 203.277344 C 122.40625 204.914062 122.820312 207.246094 122.1875 209.515625 C 121.554688 211.804688 119.984375 213.589844 118 214.332031 C 115.863281 215.117188 113.550781 214.835938 111.523438 214.507812 C 105.855469 213.589844 101.710938 212.5 100.6875 212.175781 C 98.289062 211.433594 96.066406 210.605469 94.253906 209.949219 C 93.316406 209.601562 92.378906 209.253906 91.703125 209.035156 C 92.359375 210.082031 93.625 211.914062 94.800781 213.570312 C 96.71875 216.316406 98.898438 219.433594 100.097656 221.507812 C 101.277344 223.554688 101.710938 224.753906 101.84375 226.433594 C 101.996094 228.484375 101.082031 230.597656 99.402344 232.148438 C 97.699219 233.671875 95.5 234.394531 93.46875 234.023438 C 90.65625 233.5 88.476562 231.40625 86.558594 229.226562 C 83.8125 226.105469 81.28125 222.75 79.035156 219.261719 C 77.445312 216.820312 76.332031 214.789062 75.808594 213.808594 C 75.066406 212.457031 74.542969 211.410156 74.171875 210.648438 C 73.847656 209.992188 73.5625 209.425781 73.390625 209.1875 C 73.019531 209.90625 72.472656 213.046875 71.753906 217.296875 L 71.753906 217.34375 C 71.753906 217.363281 70.992188 220.308594 70.183594 226.042969 L 70.160156 226.261719 C 69.898438 228.089844 69.636719 229.988281 68.679688 231.625 C 67.566406 233.5625 65.386719 234.851562 62.902344 235.070312 C 62.703125 235.089844 62.441406 235.089844 62.203125 235.089844 Z M 60.808594 196.277344 C 61.089844 196.277344 61.332031 196.367188 61.550781 196.5625 C 62.355469 197.304688 61.703125 198.894531 61.003906 200.335938 L 60.9375 200.464844 C 58.300781 205.9375 56.492188 213.65625 55.816406 222.183594 C 55.792969 222.335938 55.792969 222.464844 55.792969 222.53125 C 55.464844 225.824219 55.398438 229.507812 57.492188 231.972656 C 58.714844 233.410156 60.71875 234.152344 62.855469 233.957031 C 64.992188 233.761719 66.847656 232.671875 67.785156 231.058594 C 68.636719 229.597656 68.875 227.808594 69.113281 226.085938 L 69.136719 225.867188 C 69.921875 220.265625 70.664062 217.386719 70.730469 217.058594 C 71.316406 213.570312 71.710938 211.28125 72.035156 209.992188 C 72.296875 208.925781 72.582031 208.03125 73.34375 207.988281 C 74.085938 207.902344 74.414062 208.554688 75.199219 210.148438 C 75.570312 210.910156 76.09375 211.933594 76.8125 213.265625 C 77.335938 214.246094 78.425781 216.230469 79.996094 218.628906 C 82.21875 222.074219 84.726562 225.386719 87.429688 228.460938 C 89.21875 230.488281 91.246094 232.453125 93.730469 232.910156 C 95.410156 233.214844 97.285156 232.605469 98.746094 231.296875 C 100.1875 229.988281 100.972656 228.199219 100.839844 226.5 C 100.710938 224.996094 100.339844 223.949219 99.226562 222.03125 C 98.050781 220.003906 95.890625 216.90625 93.992188 214.179688 C 91.464844 210.5625 90.417969 209.011719 90.308594 208.46875 L 90.285156 208.402344 L 90.285156 208.183594 L 90.332031 208.074219 C 90.59375 207.488281 91.332031 207.726562 92.074219 207.945312 C 92.730469 208.164062 93.644531 208.488281 94.714844 208.882812 C 96.5 209.535156 98.703125 210.34375 101.082031 211.085938 C 102.324219 211.476562 106.574219 212.546875 111.765625 213.375 C 113.640625 213.679688 115.796875 213.941406 117.671875 213.242188 C 119.332031 212.632812 120.636719 211.085938 121.183594 209.144531 C 121.707031 207.226562 121.378906 205.261719 120.289062 203.890625 C 119.089844 202.382812 117.652344 201.511719 114.796875 200.554688 C 109.84375 198.917969 105.941406 197.894531 103.085938 197.128906 C 98.660156 195.953125 96.804688 195.472656 96.71875 194.25 C 96.632812 193.226562 97.742188 192.789062 100.425781 191.789062 C 102.191406 191.113281 104.632812 190.195312 107.839844 188.691406 C 108.277344 188.496094 112.964844 186.074219 118.5 182.433594 C 120.660156 181.015625 123.035156 179.273438 123.929688 176.765625 C 124.585938 174.867188 124.257812 172.644531 123.101562 170.984375 L 123.082031 170.964844 C 123.058594 170.921875 123.035156 170.898438 123.015625 170.855469 C 122.972656 170.8125 122.929688 170.746094 122.882812 170.679688 C 121.554688 169.023438 119.351562 168.085938 117.238281 168.324219 C 114.949219 168.585938 113.203125 169.679688 112.089844 170.464844 C 112.027344 170.507812 105.746094 174.933594 95.714844 179.121094 C 94.191406 179.75 93.382812 179.796875 92.992188 179.292969 C 92.816406 179.054688 92.773438 178.726562 92.882812 178.398438 C 93.078125 177.722656 93.273438 177.027344 93.46875 176.351562 C 94.515625 172.816406 95.585938 169.15625 96.261719 165.492188 C 97.242188 160.671875 97.851562 155.746094 98.09375 150.816406 C 98.222656 148.507812 98.222656 145.890625 96.960938 143.863281 C 96.066406 142.445312 94.429688 141.464844 92.554688 141.246094 C 90.679688 141.027344 88.824219 141.59375 87.625 142.773438 C 86.035156 144.339844 85.402344 146.695312 84.878906 149.160156 C 84.183594 152.34375 83.550781 155.441406 83.003906 158.339844 C 82.765625 159.667969 82.546875 161.085938 82.308594 163.007812 L 82.242188 163.617188 C 81.980469 165.6875 81.847656 166.820312 81 167.019531 C 80.234375 167.191406 79.667969 166.386719 79.296875 165.753906 C 79.144531 165.46875 78.96875 165.1875 78.816406 164.902344 C 78.402344 164.207031 77.988281 163.464844 77.554688 162.765625 C 76.375 160.847656 75.242188 159.101562 74.085938 157.425781 C 71.6875 153.957031 69.027344 150.578125 66.171875 147.414062 C 64.625 145.691406 62.769531 143.773438 60.4375 142.925781 C 58.539062 142.226562 56.46875 142.464844 55.074219 143.535156 C 53.371094 144.777344 52.019531 145.757812 52.171875 147.917969 C 52.28125 149.292969 52.894531 150.597656 53.613281 152.039062 C 54.898438 154.480469 56.292969 156.902344 57.820312 159.210938 L 57.84375 159.234375 C 57.90625 159.320312 58.125 159.667969 58.453125 160.128906 C 58.933594 160.824219 59.675781 161.914062 60.675781 163.398438 C 61.351562 164.378906 61.984375 165.316406 62.441406 166.035156 C 62.988281 166.886719 63.402344 167.585938 62.878906 167.976562 C 62.507812 168.261719 62.136719 167.976562 61.984375 167.867188 C 61.832031 167.757812 61.65625 167.605469 61.332031 167.453125 L 61.027344 167.300781 C 60.480469 167.039062 59.957031 166.800781 59.433594 166.582031 C 58.148438 166.058594 56.816406 165.578125 55.488281 165.164062 C 52.914062 164.3125 50.167969 163.574219 47.355469 163.007812 C 45.675781 162.65625 43.976562 162.375 42.296875 162.15625 C 40.421875 161.914062 38.261719 161.71875 36.429688 162.4375 C 34.425781 163.246094 32.898438 165.164062 32.570312 167.300781 C 32.265625 169.460938 33.183594 171.707031 34.882812 173.058594 C 36.257812 174.125 38.042969 174.605469 39.789062 175.0625 C 46.023438 176.785156 52.128906 178.921875 57.953125 181.453125 C 58.125 181.605469 58.214844 181.84375 58.148438 182.0625 C 58.058594 182.324219 57.796875 182.476562 57.515625 182.457031 L 57.558594 182.476562 C 57.230469 182.433594 55.878906 183.042969 55.355469 183.261719 C 55.03125 183.414062 54.769531 183.523438 54.59375 183.589844 C 53.460938 184.003906 52.304688 184.441406 51.0625 184.960938 C 48.773438 185.898438 46.460938 186.96875 44.191406 188.125 L 43.625 188.40625 C 39.527344 190.5 34.902344 192.878906 31.960938 196.277344 C 29.671875 198.960938 29.519531 202.535156 31.566406 205 C 32.984375 206.679688 35.273438 207.550781 37.410156 207.226562 C 39.199219 206.964844 40.855469 205.9375 42.449219 204.933594 L 42.839844 204.695312 C 47.355469 201.882812 52.171875 199.527344 57.167969 197.695312 C 57.710938 197.5 58.234375 197.214844 58.757812 196.957031 C 59.542969 196.628906 60.242188 196.277344 60.808594 196.277344 Z M 60.808594 196.277344 "
            fill-opacity="1" fill-rule="nonzero" />
    </g>
    <g fill="#ffffff" fill-opacity="1">
        <g transform="translate(146.286513, 237.374984)">
            <g>
                <path
                    d="M 18.273438 -79.675781 C 25.113281 -79.675781 30.765625 -83.882812 30.765625 -90.980469 C 30.765625 -97.949219 25.113281 -102.417969 18.273438 -102.417969 C 11.4375 -102.417969 5.785156 -97.949219 5.785156 -90.980469 C 5.785156 -83.882812 11.4375 -79.675781 18.273438 -79.675781 Z M 29.320312 0 L 29.320312 -74.546875 L 7.230469 -74.546875 L 7.230469 0 Z M 29.320312 0 " />
            </g>
        </g>
    </g>
    <g fill="#ffffff" fill-opacity="1">
        <g transform="translate(179.548872, 237.374984)">
            <g>
                <path
                    d="M 29.320312 0 L 29.320312 -41.941406 C 29.320312 -48.382812 30.238281 -52.0625 32.078125 -54.5625 C 34.050781 -57.324219 37.339844 -58.375 41.941406 -58.375 C 45.621094 -58.375 48.25 -57.585938 50.09375 -55.613281 C 52.328125 -53.246094 53.246094 -49.304688 53.246094 -41.941406 L 53.246094 0 L 75.335938 0 L 75.335938 -41.675781 C 75.335938 -50.878906 75.335938 -56.796875 72.441406 -63.238281 C 69.417969 -70.078125 63.109375 -76.125 48.382812 -76.125 C 40.496094 -76.125 34.316406 -74.019531 29.320312 -66.527344 L 29.320312 -74.546875 L 7.230469 -74.546875 L 7.230469 0 Z M 29.320312 0 " />
            </g>
        </g>
    </g>
    <g fill="#ffffff" fill-opacity="1">
        <g transform="translate(258.300738, 237.374984)">
            <g>
                <path
                    d="M 42.992188 1.578125 C 61.660156 1.578125 75.992188 -8.546875 79.675781 -25.769531 L 55.613281 -25.769531 C 54.167969 -19.589844 50.488281 -16.039062 42.992188 -16.039062 C 33.132812 -16.039062 26.953125 -24.191406 26.953125 -37.734375 C 26.953125 -50.75 33.132812 -58.636719 42.992188 -58.636719 C 49.566406 -58.636719 53.378906 -55.746094 55.351562 -49.699219 L 79.542969 -49.699219 C 75.730469 -65.867188 61.792969 -76.125 42.992188 -76.125 C 19.589844 -76.125 4.207031 -60.609375 4.207031 -37.734375 C 4.207031 -13.9375 19.722656 1.578125 42.992188 1.578125 Z M 42.992188 1.578125 " />
            </g>
        </g>
    </g>
    <style>
        path { fill: #000; }
        @media (prefers-color-scheme: dark) {
            path { fill: #FFF; }
        }
    </style>
</svg>