<svg xmlns="http://www.w3.org/2000/svg" xmlns:xlink="http://www.w3.org/1999/xlink" width="500" zoomAndPan="magnify" viewBox="0 0 375 187.499995" height="250" preserveAspectRatio="xMidYMid meet" version="1.0"><defs><g/><clipPath id="314d1c02d1"><path d="M 19.199219 63 L 58 63 L 58 101 L 19.199219 101 Z M 19.199219 63 " clip-rule="nonzero"/></clipPath><clipPath id="5cb461ea25"><path d="M 19.199219 63 L 58.535156 63 L 58.535156 101.476562 L 19.199219 101.476562 Z M 19.199219 63 " clip-rule="nonzero"/></clipPath></defs><g clip-path="url(#314d1c02d1)"><path fill="#5ce1e6" d="M 57.429688 75.355469 C 57.402344 75.3125 57.367188 75.277344 57.339844 75.234375 C 56.765625 74.5 55.792969 74.097656 54.875 74.203125 C 53.859375 74.316406 53.105469 74.8125 52.703125 75.101562 C 52.703125 75.101562 50.226562 76.863281 46.175781 78.550781 C 45.484375 78.839844 45.371094 78.726562 45.34375 78.691406 C 45.320312 78.65625 45.308594 78.601562 45.335938 78.53125 C 45.835938 76.808594 46.378906 75.085938 46.703125 73.328125 C 47.09375 71.375 47.339844 69.398438 47.4375 67.410156 C 47.488281 66.40625 47.480469 65.335938 46.945312 64.488281 C 46.113281 63.160156 43.988281 62.914062 42.867188 64.015625 C 42.167969 64.707031 41.914062 65.722656 41.703125 66.683594 C 41.433594 67.910156 41.179688 69.144531 40.953125 70.378906 C 40.839844 71 40.75 71.628906 40.671875 72.257812 C 40.566406 73.089844 40.523438 73.632812 40.3125 73.675781 C 40.234375 73.695312 40.09375 73.667969 39.867188 73.273438 C 39.632812 72.871094 39.402344 72.46875 39.160156 72.074219 C 38.710938 71.339844 38.25 70.621094 37.757812 69.921875 C 36.789062 68.515625 35.71875 67.167969 34.566406 65.890625 C 33.882812 65.128906 33.128906 64.375 32.175781 64.023438 C 31.40625 63.746094 30.476562 63.796875 29.8125 64.296875 C 29.105469 64.8125 28.492188 65.257812 28.5625 66.246094 C 28.605469 66.859375 28.886719 67.4375 29.164062 67.988281 C 29.683594 68.976562 30.25 69.949219 30.863281 70.886719 C 30.871094 70.902344 31.257812 71.464844 32.007812 72.574219 C 32.5625 73.378906 33.015625 74.054688 32.9375 74.113281 C 32.902344 74.140625 32.816406 74.007812 32.542969 73.878906 C 32.28125 73.753906 32.027344 73.632812 31.765625 73.527344 C 31.238281 73.316406 30.707031 73.125 30.164062 72.949219 C 29.085938 72.589844 27.984375 72.304688 26.875 72.074219 C 26.191406 71.933594 25.507812 71.820312 24.824219 71.734375 C 24.003906 71.628906 23.136719 71.558594 22.367188 71.867188 C 21.492188 72.214844 20.828125 73.054688 20.6875 73.992188 C 20.554688 74.929688 20.949219 75.917969 21.691406 76.503906 C 22.28125 76.957031 23.023438 77.160156 23.742188 77.351562 C 26.21875 78.035156 28.640625 78.882812 31.003906 79.90625 C 30.792969 79.820312 29.910156 80.273438 29.683594 80.351562 C 29.199219 80.527344 28.726562 80.710938 28.253906 80.90625 C 27.3125 81.289062 26.382812 81.71875 25.480469 82.183594 C 23.792969 83.046875 21.773438 84.046875 20.511719 85.507812 C 19.59375 86.582031 19.410156 88.160156 20.355469 89.289062 C 20.96875 90.011719 21.964844 90.398438 22.902344 90.257812 C 23.722656 90.136719 24.449219 89.65625 25.15625 89.21875 C 26.960938 88.097656 28.878906 87.160156 30.871094 86.425781 C 31.539062 86.179688 32.160156 85.683594 32.394531 85.902344 C 32.640625 86.128906 32.246094 86.914062 32.105469 87.214844 C 30.339844 90.886719 30.058594 95.683594 30.015625 96.148438 C 29.875 97.519531 29.855469 99.050781 30.75 100.101562 C 31.886719 101.441406 34.355469 101.222656 35.238281 99.699219 C 35.613281 99.050781 35.710938 98.28125 35.816406 97.539062 C 36.148438 95.195312 36.453125 94.019531 36.453125 94.019531 C 36.945312 91.082031 37.066406 90.566406 37.304688 90.546875 C 37.539062 90.519531 37.652344 91.027344 38.484375 92.550781 C 38.695312 92.945312 39.140625 93.75 39.769531 94.722656 C 40.671875 96.121094 41.671875 97.441406 42.773438 98.695312 C 43.5 99.515625 44.339844 100.347656 45.421875 100.550781 C 47.007812 100.828125 48.652344 99.339844 48.53125 97.738281 C 48.476562 97.109375 48.320312 96.65625 47.855469 95.851562 C 46.910156 94.214844 44.382812 90.871094 44.296875 90.46875 C 44.296875 90.46875 44.296875 90.460938 44.296875 90.449219 C 44.363281 90.292969 46.203125 91.117188 48.347656 91.78125 C 48.792969 91.921875 50.472656 92.359375 52.660156 92.707031 C 53.484375 92.839844 54.359375 92.9375 55.144531 92.648438 C 56.695312 92.070312 57.324219 89.847656 56.292969 88.550781 C 55.757812 87.878906 55.109375 87.519531 53.980469 87.144531 C 49.28125 85.59375 46.921875 85.382812 46.875 84.808594 C 46.839844 84.371094 48.1875 84.195312 51.214844 82.785156 C 51.390625 82.707031 53.265625 81.746094 55.523438 80.257812 C 56.449219 79.644531 57.410156 78.925781 57.789062 77.875 C 58.066406 77.054688 57.9375 76.082031 57.429688 75.355469 Z M 57.429688 75.355469 " fill-opacity="1" fill-rule="nonzero"/></g><g clip-path="url(#5cb461ea25)"><path fill="#5ce1e6" d="M 32.804688 101.207031 C 31.921875 101.207031 31.109375 100.855469 30.582031 100.242188 C 29.636719 99.121094 29.65625 97.53125 29.796875 96.121094 C 29.796875 96.09375 29.804688 96.050781 29.804688 95.980469 C 30.085938 92.5 30.828125 89.347656 31.90625 87.109375 L 31.929688 87.054688 C 32.28125 86.3125 32.273438 86.109375 32.246094 86.050781 C 32.148438 86.03125 31.84375 86.191406 31.632812 86.304688 C 31.421875 86.410156 31.1875 86.53125 30.949219 86.617188 C 28.972656 87.34375 27.066406 88.28125 25.28125 89.390625 L 25.125 89.488281 C 24.449219 89.910156 23.75 90.347656 22.9375 90.460938 C 21.929688 90.609375 20.851562 90.199219 20.1875 89.410156 C 19.226562 88.253906 19.285156 86.582031 20.34375 85.351562 C 21.578125 83.921875 23.476562 82.941406 25.15625 82.085938 L 25.378906 81.972656 C 26.296875 81.5 27.230469 81.070312 28.167969 80.6875 C 28.675781 80.484375 29.140625 80.300781 29.601562 80.132812 C 29.65625 80.117188 29.761719 80.074219 29.875 80.019531 C 30.03125 79.949219 30.179688 79.890625 30.304688 79.835938 C 28.167969 78.945312 25.945312 78.175781 23.679688 77.554688 C 22.980469 77.359375 22.183594 77.152344 21.554688 76.667969 C 20.75 76.039062 20.320312 74.972656 20.46875 73.957031 C 20.617188 72.941406 21.335938 72.039062 22.28125 71.65625 C 23.109375 71.324219 24.039062 71.410156 24.84375 71.507812 C 25.527344 71.59375 26.226562 71.707031 26.910156 71.847656 C 28.0625 72.085938 29.175781 72.382812 30.222656 72.730469 C 30.765625 72.90625 31.308594 73.097656 31.835938 73.316406 C 32.027344 73.398438 32.21875 73.484375 32.414062 73.570312 C 32.226562 73.28125 31.992188 72.941406 31.816406 72.6875 C 31.414062 72.09375 31.117188 71.65625 30.925781 71.375 C 30.730469 71.085938 30.679688 71.015625 30.664062 70.992188 C 30.050781 70.054688 29.472656 69.074219 28.957031 68.078125 C 28.648438 67.472656 28.371094 66.886719 28.324219 66.246094 C 28.246094 65.136719 28.9375 64.636719 29.664062 64.105469 C 30.347656 63.597656 31.328125 63.472656 32.226562 63.804688 C 33.261719 64.183594 34.046875 64.996094 34.703125 65.730469 C 35.859375 67.019531 36.945312 68.382812 37.917969 69.792969 C 38.386719 70.464844 38.851562 71.175781 39.324219 71.953125 C 39.5 72.234375 39.675781 72.53125 39.839844 72.820312 C 39.902344 72.933594 39.972656 73.046875 40.035156 73.160156 C 40.128906 73.328125 40.199219 73.40625 40.234375 73.433594 C 40.304688 73.28125 40.355469 72.855469 40.402344 72.46875 L 40.425781 72.222656 C 40.523438 71.453125 40.609375 70.867188 40.707031 70.335938 C 40.925781 69.160156 41.179688 67.917969 41.460938 66.632812 C 41.6875 65.582031 41.957031 64.578125 42.683594 63.859375 C 43.261719 63.289062 44.128906 63.019531 45.019531 63.125 C 45.914062 63.230469 46.675781 63.683594 47.105469 64.375 C 47.679688 65.304688 47.679688 66.429688 47.628906 67.429688 C 47.53125 69.425781 47.289062 71.429688 46.894531 73.378906 C 46.621094 74.867188 46.183594 76.34375 45.765625 77.773438 C 45.695312 78.027344 45.617188 78.269531 45.546875 78.523438 C 45.632812 78.507812 45.800781 78.472656 46.070312 78.359375 C 50.050781 76.695312 52.527344 74.953125 52.554688 74.9375 C 53.035156 74.585938 53.804688 74.113281 54.832031 74 C 55.828125 73.886719 56.871094 74.324219 57.492188 75.113281 L 57.507812 75.136719 C 57.515625 75.15625 57.527344 75.164062 57.535156 75.183594 C 57.550781 75.199219 57.570312 75.226562 57.585938 75.261719 C 58.128906 76.039062 58.277344 77.070312 57.972656 77.972656 C 57.570312 79.109375 56.546875 79.855469 55.617188 80.46875 C 53.335938 81.972656 51.46875 82.925781 51.277344 83.011719 C 49.972656 83.617188 48.992188 83.992188 48.277344 84.265625 C 47.691406 84.492188 47.140625 84.703125 47.070312 84.816406 C 47.140625 85.007812 48.234375 85.296875 49.300781 85.578125 C 50.457031 85.882812 52.03125 86.304688 54.023438 86.960938 C 55.269531 87.371094 55.898438 87.765625 56.441406 88.4375 C 56.964844 89.09375 57.132812 90.03125 56.878906 90.941406 C 56.625 91.859375 55.992188 92.578125 55.199219 92.875 C 54.339844 93.191406 53.414062 93.074219 52.597656 92.945312 C 50.324219 92.578125 48.660156 92.140625 48.25 92.007812 C 47.289062 91.710938 46.394531 91.378906 45.667969 91.117188 C 45.292969 90.976562 44.917969 90.835938 44.644531 90.75 C 44.90625 91.167969 45.414062 91.902344 45.886719 92.570312 C 46.65625 93.671875 47.53125 94.921875 48.015625 95.753906 C 48.488281 96.578125 48.660156 97.058594 48.714844 97.730469 C 48.773438 98.554688 48.40625 99.402344 47.734375 100.023438 C 47.050781 100.636719 46.167969 100.925781 45.355469 100.777344 C 44.226562 100.566406 43.351562 99.726562 42.578125 98.851562 C 41.476562 97.601562 40.460938 96.253906 39.5625 94.851562 C 38.921875 93.871094 38.476562 93.058594 38.265625 92.664062 C 37.96875 92.121094 37.757812 91.703125 37.609375 91.394531 C 37.480469 91.132812 37.363281 90.90625 37.292969 90.808594 C 37.144531 91.097656 36.925781 92.359375 36.636719 94.066406 L 36.636719 94.082031 C 36.636719 94.089844 36.332031 95.273438 36.007812 97.574219 L 36 97.660156 C 35.894531 98.394531 35.789062 99.15625 35.40625 99.8125 C 34.957031 100.59375 34.082031 101.109375 33.085938 101.195312 C 33.007812 101.207031 32.902344 101.207031 32.804688 101.207031 Z M 32.246094 85.628906 C 32.359375 85.628906 32.457031 85.664062 32.542969 85.742188 C 32.867188 86.039062 32.605469 86.679688 32.324219 87.257812 L 32.296875 87.308594 C 31.238281 89.507812 30.511719 92.605469 30.242188 96.023438 C 30.234375 96.085938 30.234375 96.140625 30.234375 96.164062 C 30.101562 97.484375 30.074219 98.964844 30.914062 99.953125 C 31.40625 100.53125 32.210938 100.828125 33.070312 100.75 C 33.925781 100.671875 34.667969 100.234375 35.046875 99.585938 C 35.386719 99 35.484375 98.28125 35.578125 97.589844 L 35.589844 97.503906 C 35.902344 95.253906 36.199219 94.101562 36.226562 93.96875 C 36.464844 92.570312 36.621094 91.648438 36.753906 91.132812 C 36.855469 90.703125 36.972656 90.347656 37.277344 90.328125 C 37.574219 90.292969 37.707031 90.554688 38.019531 91.195312 C 38.167969 91.5 38.378906 91.914062 38.667969 92.445312 C 38.878906 92.839844 39.316406 93.636719 39.945312 94.597656 C 40.839844 95.980469 41.84375 97.3125 42.929688 98.546875 C 43.648438 99.359375 44.460938 100.144531 45.457031 100.328125 C 46.132812 100.453125 46.886719 100.207031 47.472656 99.683594 C 48.050781 99.15625 48.363281 98.441406 48.3125 97.757812 C 48.257812 97.152344 48.109375 96.734375 47.664062 95.964844 C 47.191406 95.148438 46.324219 93.90625 45.5625 92.8125 C 44.546875 91.359375 44.128906 90.738281 44.085938 90.519531 L 44.078125 90.496094 L 44.078125 90.40625 L 44.09375 90.363281 C 44.199219 90.128906 44.496094 90.222656 44.792969 90.3125 C 45.054688 90.398438 45.421875 90.53125 45.851562 90.6875 C 46.570312 90.949219 47.453125 91.273438 48.40625 91.570312 C 48.90625 91.730469 50.613281 92.15625 52.695312 92.488281 C 53.449219 92.613281 54.3125 92.71875 55.066406 92.4375 C 55.730469 92.191406 56.257812 91.570312 56.476562 90.792969 C 56.683594 90.023438 56.554688 89.234375 56.117188 88.683594 C 55.636719 88.078125 55.058594 87.730469 53.910156 87.34375 C 51.925781 86.6875 50.359375 86.277344 49.210938 85.972656 C 47.4375 85.5 46.691406 85.304688 46.65625 84.816406 C 46.621094 84.40625 47.070312 84.230469 48.144531 83.828125 C 48.855469 83.554688 49.832031 83.1875 51.121094 82.585938 C 51.296875 82.503906 53.175781 81.535156 55.398438 80.074219 C 56.265625 79.503906 57.21875 78.804688 57.578125 77.796875 C 57.839844 77.035156 57.710938 76.144531 57.246094 75.480469 L 57.238281 75.46875 C 57.226562 75.453125 57.21875 75.445312 57.210938 75.425781 C 57.191406 75.410156 57.175781 75.382812 57.15625 75.355469 C 56.625 74.691406 55.742188 74.316406 54.890625 74.410156 C 53.972656 74.515625 53.273438 74.953125 52.828125 75.269531 C 52.800781 75.285156 50.28125 77.0625 46.253906 78.742188 C 45.640625 78.996094 45.320312 79.015625 45.160156 78.8125 C 45.089844 78.71875 45.074219 78.585938 45.117188 78.453125 C 45.195312 78.183594 45.273438 77.902344 45.355469 77.632812 C 45.773438 76.214844 46.203125 74.746094 46.472656 73.273438 C 46.867188 71.339844 47.113281 69.363281 47.207031 67.386719 C 47.261719 66.457031 47.261719 65.40625 46.753906 64.59375 C 46.394531 64.023438 45.738281 63.632812 44.984375 63.542969 C 44.234375 63.457031 43.488281 63.683594 43.007812 64.15625 C 42.371094 64.785156 42.117188 65.730469 41.90625 66.71875 C 41.625 67.996094 41.371094 69.242188 41.152344 70.402344 C 41.058594 70.9375 40.96875 71.507812 40.875 72.277344 L 40.847656 72.523438 C 40.742188 73.351562 40.691406 73.808594 40.347656 73.886719 C 40.042969 73.957031 39.816406 73.632812 39.667969 73.378906 C 39.605469 73.265625 39.535156 73.152344 39.472656 73.039062 C 39.308594 72.757812 39.140625 72.460938 38.964844 72.179688 C 38.492188 71.410156 38.039062 70.710938 37.574219 70.035156 C 36.613281 68.644531 35.542969 67.289062 34.398438 66.019531 C 33.777344 65.328125 33.035156 64.558594 32.097656 64.21875 C 31.335938 63.9375 30.503906 64.035156 29.945312 64.460938 C 29.261719 64.960938 28.71875 65.355469 28.78125 66.222656 C 28.824219 66.773438 29.070312 67.296875 29.359375 67.875 C 29.875 68.855469 30.433594 69.828125 31.046875 70.753906 L 31.054688 70.761719 C 31.082031 70.796875 31.167969 70.9375 31.300781 71.121094 C 31.492188 71.402344 31.789062 71.839844 32.195312 72.433594 C 32.464844 72.828125 32.71875 73.203125 32.902344 73.492188 C 33.121094 73.835938 33.289062 74.113281 33.078125 74.273438 C 32.929688 74.386719 32.78125 74.273438 32.71875 74.226562 C 32.65625 74.183594 32.585938 74.125 32.457031 74.0625 L 32.332031 74 C 32.113281 73.894531 31.90625 73.800781 31.695312 73.710938 C 31.179688 73.5 30.644531 73.308594 30.109375 73.144531 C 29.078125 72.800781 27.976562 72.503906 26.847656 72.277344 C 26.171875 72.136719 25.492188 72.023438 24.816406 71.933594 C 24.0625 71.839844 23.199219 71.761719 22.464844 72.050781 C 21.65625 72.371094 21.046875 73.144531 20.914062 74 C 20.792969 74.867188 21.160156 75.769531 21.84375 76.3125 C 22.394531 76.738281 23.109375 76.933594 23.8125 77.117188 C 26.3125 77.808594 28.761719 78.664062 31.101562 79.679688 C 31.167969 79.742188 31.203125 79.835938 31.179688 79.925781 C 31.144531 80.03125 31.039062 80.089844 30.925781 80.082031 L 30.941406 80.089844 C 30.8125 80.074219 30.269531 80.316406 30.058594 80.40625 C 29.925781 80.46875 29.820312 80.511719 29.753906 80.535156 C 29.296875 80.703125 28.832031 80.878906 28.335938 81.089844 C 27.414062 81.464844 26.488281 81.894531 25.578125 82.355469 L 25.351562 82.472656 C 23.707031 83.3125 21.851562 84.265625 20.667969 85.628906 C 19.75 86.707031 19.6875 88.140625 20.511719 89.128906 C 21.082031 89.804688 22 90.152344 22.855469 90.023438 C 23.574219 89.917969 24.238281 89.507812 24.878906 89.101562 L 25.035156 89.007812 C 26.847656 87.878906 28.78125 86.933594 30.785156 86.199219 C 31.003906 86.121094 31.214844 86.007812 31.421875 85.902344 C 31.738281 85.769531 32.019531 85.628906 32.246094 85.628906 Z M 32.246094 85.628906 " fill-opacity="1" fill-rule="nonzero"/></g><g fill="#ffffff" fill-opacity="1"><g transform="translate(68.015596, 102.310883)"><g><path d="M 7.335938 -31.984375 C 10.082031 -31.984375 12.351562 -33.671875 12.351562 -36.523438 C 12.351562 -39.320312 10.082031 -41.113281 7.335938 -41.113281 C 4.589844 -41.113281 2.320312 -39.320312 2.320312 -36.523438 C 2.320312 -33.671875 4.589844 -31.984375 7.335938 -31.984375 Z M 11.769531 0 L 11.769531 -29.925781 L 2.902344 -29.925781 L 2.902344 0 Z M 11.769531 0 "/></g></g></g><g fill="#ffffff" fill-opacity="1"><g transform="translate(81.36846, 102.310883)"><g><path d="M 11.769531 0 L 11.769531 -16.835938 C 11.769531 -19.421875 12.140625 -20.898438 12.878906 -21.902344 C 13.667969 -23.011719 14.988281 -23.433594 16.835938 -23.433594 C 18.3125 -23.433594 19.371094 -23.117188 20.109375 -22.324219 C 21.003906 -21.375 21.375 -19.792969 21.375 -16.835938 L 21.375 0 L 30.242188 0 L 30.242188 -16.730469 C 30.242188 -20.425781 30.242188 -22.800781 29.082031 -25.386719 C 27.867188 -28.128906 25.332031 -30.558594 19.421875 -30.558594 C 16.253906 -30.558594 13.773438 -29.714844 11.769531 -26.707031 L 11.769531 -29.925781 L 2.902344 -29.925781 L 2.902344 0 Z M 11.769531 0 "/></g></g></g><g fill="#ffffff" fill-opacity="1"><g transform="translate(112.982547, 102.310883)"><g><path d="M 14.355469 0 L 14.355469 -23.0625 L 18.839844 -23.0625 L 18.839844 -29.925781 L 14.355469 -29.925781 L 14.355469 -31.507812 C 14.355469 -33.144531 15.410156 -33.460938 16.097656 -33.460938 L 18.839844 -33.460938 L 18.839844 -40.269531 L 13.933594 -40.269531 C 8.445312 -40.269531 5.382812 -37.523438 5.382812 -32.828125 L 5.382812 -29.925781 L 1.109375 -29.925781 L 1.109375 -23.0625 L 5.382812 -23.0625 L 5.382812 0 Z M 14.355469 0 "/></g></g></g><g fill="#ffffff" fill-opacity="1"><g transform="translate(131.613216, 102.310883)"><g><path d="M 17.417969 0.632812 C 26.917969 0.632812 33.144531 -5.648438 33.144531 -15.148438 C 33.144531 -24.277344 26.8125 -30.558594 17.417969 -30.558594 C 8.023438 -30.558594 1.6875 -24.332031 1.6875 -15.148438 C 1.6875 -5.59375 8.074219 0.632812 17.417969 0.632812 Z M 17.417969 -6.964844 C 13.457031 -6.964844 10.820312 -10.132812 10.820312 -15.148438 C 10.820312 -19.84375 13.457031 -23.011719 17.417969 -23.011719 C 21.429688 -23.011719 23.910156 -19.792969 23.910156 -15.148438 C 23.910156 -10.238281 21.429688 -6.964844 17.417969 -6.964844 Z M 17.417969 -6.964844 "/></g></g></g><g fill="#ffffff" fill-opacity="1"><g transform="translate(165.127321, 102.310883)"><g><path d="M 17.257812 0.632812 C 24.753906 0.632812 30.503906 -3.429688 31.984375 -10.34375 L 22.324219 -10.34375 C 21.746094 -7.863281 20.265625 -6.4375 17.257812 -6.4375 C 13.300781 -6.4375 10.820312 -9.710938 10.820312 -15.148438 C 10.820312 -20.371094 13.300781 -23.539062 17.257812 -23.539062 C 19.898438 -23.539062 21.429688 -22.378906 22.21875 -19.949219 L 31.929688 -19.949219 C 30.398438 -26.441406 24.804688 -30.558594 17.257812 -30.558594 C 7.863281 -30.558594 1.6875 -24.332031 1.6875 -15.148438 C 1.6875 -5.59375 7.917969 0.632812 17.257812 0.632812 Z M 17.257812 0.632812 "/></g></g></g><g fill="#ffffff" fill-opacity="1"><g transform="translate(197.216423, 102.310883)"><g><path d="M 17.3125 0.632812 C 25.753906 0.632812 30.347656 -4.433594 32.035156 -10.34375 L 23.117188 -10.34375 C 22.378906 -8.496094 20.476562 -6.964844 17.785156 -6.964844 C 15.570312 -6.964844 13.773438 -7.652344 12.507812 -9.234375 C 11.769531 -10.132812 11.1875 -11.609375 10.976562 -13.089844 L 32.511719 -13.089844 L 32.511719 -14.621094 C 32.511719 -26.179688 24.910156 -30.558594 17.046875 -30.558594 C 6.226562 -30.558594 1.6875 -22.324219 1.6875 -14.726562 C 1.6875 -5.859375 7.8125 0.632812 17.3125 0.632812 Z M 11.242188 -19.371094 C 11.347656 -20.054688 11.609375 -21.058594 12.613281 -22.0625 C 13.878906 -23.328125 15.570312 -23.804688 17.363281 -23.804688 C 19.160156 -23.804688 20.847656 -23.328125 22.113281 -22.0625 C 23.0625 -21.109375 23.378906 -20.054688 23.539062 -19.371094 Z M 11.242188 -19.371094 "/></g></g></g><g fill="#ffffff" fill-opacity="1"><g transform="translate(230.097191, 102.310883)"><g><path d="M 11.769531 0 L 11.769531 -16.835938 C 11.769531 -19.421875 12.140625 -20.898438 12.878906 -21.902344 C 13.667969 -23.011719 14.988281 -23.433594 16.835938 -23.433594 C 18.3125 -23.433594 19.371094 -23.117188 20.109375 -22.324219 C 21.003906 -21.375 21.375 -19.792969 21.375 -16.835938 L 21.375 0 L 30.242188 0 L 30.242188 -16.730469 C 30.242188 -20.425781 30.242188 -22.800781 29.082031 -25.386719 C 27.867188 -28.128906 25.332031 -30.558594 19.421875 -30.558594 C 16.253906 -30.558594 13.773438 -29.714844 11.769531 -26.707031 L 11.769531 -29.925781 L 2.902344 -29.925781 L 2.902344 0 Z M 11.769531 0 "/></g></g></g><g fill="#ffffff" fill-opacity="1"><g transform="translate(261.711271, 102.310883)"><g><path d="M 19.210938 0 L 19.210938 -7.179688 L 15.886719 -7.179688 C 14.355469 -7.179688 14.089844 -8.128906 14.089844 -8.972656 L 14.089844 -23.011719 L 19.265625 -23.011719 L 19.265625 -29.925781 L 14.089844 -29.925781 L 14.089844 -40.269531 L 5.226562 -40.269531 L 5.226562 -29.925781 L 1.109375 -29.925781 L 1.109375 -23.011719 L 5.226562 -23.011719 L 5.226562 -5.964844 C 5.226562 -2.164062 7.757812 0 12.140625 0 Z M 19.210938 0 "/></g></g></g><g fill="#ffffff" fill-opacity="1"><g transform="translate(281.397503, 102.310883)"><g><path d="M 11.769531 0 L 11.769531 -12.613281 C 11.769531 -16.679688 12.457031 -19.054688 13.984375 -20.53125 C 15.042969 -21.535156 16.574219 -22.113281 19.054688 -22.113281 L 20.742188 -22.113281 L 20.742188 -30.558594 L 19.421875 -30.558594 C 16.253906 -30.558594 13.773438 -29.714844 11.769531 -26.707031 L 11.769531 -29.925781 L 2.902344 -29.925781 L 2.902344 0 Z M 11.769531 0 "/></g></g></g><g fill="#ffffff" fill-opacity="1"><g transform="translate(301.717079, 102.310883)"><g><path d="M 11.558594 0.632812 C 14.039062 0.632812 16.414062 0.265625 18.15625 -0.949219 C 19.105469 -1.582031 19.792969 -2.480469 20.265625 -3.640625 L 20.265625 0 L 29.132812 0 L 29.132812 -14.199219 C 29.132812 -19.738281 29.132812 -24.4375 25.4375 -27.601562 C 23.0625 -29.660156 19.632812 -30.558594 16.148438 -30.558594 C 10.132812 -30.558594 3.957031 -27.445312 2.851562 -19.949219 L 11.664062 -19.949219 C 12.085938 -22.484375 14.039062 -23.910156 16.097656 -23.910156 C 17.417969 -23.910156 18.417969 -23.59375 19.105469 -22.851562 C 19.792969 -22.0625 20.214844 -20.898438 20.320312 -19.371094 L 12.5625 -17.996094 C 10.292969 -17.574219 7.601562 -16.996094 5.488281 -15.621094 C 3.324219 -14.199219 1.742188 -11.980469 1.742188 -8.390625 C 1.742188 -2.375 6.175781 0.632812 11.558594 0.632812 Z M 14.144531 -6.070312 C 12.246094 -6.070312 10.609375 -6.808594 10.609375 -8.707031 C 10.609375 -9.554688 10.925781 -10.132812 11.398438 -10.609375 C 12.140625 -11.292969 13.089844 -11.664062 15.042969 -12.035156 L 20.476562 -13.089844 C 20.371094 -9.816406 19.792969 -7.917969 17.363281 -6.808594 C 16.308594 -6.332031 15.148438 -6.070312 14.144531 -6.070312 Z M 14.144531 -6.070312 "/></g></g></g><g fill="#ffffff" fill-opacity="1"><g transform="translate(332.117268, 102.310883)"><g><path d="M 15.570312 0 L 15.570312 -7.179688 L 13.351562 -7.179688 C 12.667969 -7.179688 11.609375 -7.390625 11.609375 -9.023438 L 11.609375 -40.269531 L 2.746094 -40.269531 L 2.746094 -5.964844 C 2.746094 -2.164062 5.226562 0 9.605469 0 Z M 15.570312 0 "/></g></g></g><g fill="#ffffff" fill-opacity="1"><g transform="translate(68.015596, 131.967084)"><g><path d="M 6.082031 0 L 6.082031 -1.769531 L 5.027344 -1.769531 C 4.152344 -1.769531 4.0625 -2.253906 4.0625 -2.898438 L 4.0625 -8.246094 L 6.101562 -8.246094 L 6.101562 -10 L 4.0625 -10 L 4.0625 -13.652344 L 1.949219 -13.652344 L 1.949219 -10 L 0.449219 -10 L 0.449219 -8.246094 L 1.949219 -8.246094 L 1.949219 -2.308594 C 1.949219 -0.589844 2.808594 0 4.292969 0 Z M 6.082031 0 "/></g></g></g><g fill="#ffffff" fill-opacity="1"><g transform="translate(74.742557, 131.967084)"><g><path d="M 4.597656 0.195312 C 5.761719 0.195312 6.582031 -0.269531 7.40625 -1.359375 L 7.40625 0 L 9.519531 0 L 9.519531 -10 L 7.40625 -10 L 7.40625 -5.171875 C 7.40625 -3.632812 7.210938 -2.773438 6.710938 -2.21875 C 6.332031 -1.808594 5.816406 -1.574219 5.097656 -1.574219 C 4.472656 -1.574219 4.027344 -1.734375 3.738281 -2.058594 C 3.382812 -2.449219 3.21875 -3.09375 3.21875 -4.132812 L 3.21875 -10 L 1.109375 -10 L 1.109375 -4.152344 C 1.109375 -2.808594 1.214844 -2.09375 1.539062 -1.449219 C 2.074219 -0.359375 3.09375 0.195312 4.597656 0.195312 Z M 4.597656 0.195312 "/></g></g></g><g fill="#ffffff" fill-opacity="1"><g transform="translate(85.405505, 131.967084)"><g/></g></g><g fill="#ffffff" fill-opacity="1"><g transform="translate(90.271826, 131.967084)"><g><path d="M 6.261719 -10.199219 C 5.007812 -10.199219 4.152344 -9.820312 3.273438 -8.640625 L 3.273438 -10 L 1.164062 -10 L 1.164062 3.648438 L 3.273438 3.648438 L 3.273438 -1.359375 C 4.167969 -0.160156 5.046875 0.179688 6.261719 0.179688 C 8.890625 0.179688 10.664062 -1.949219 10.664062 -5.007812 C 10.664062 -8.070312 8.890625 -10.199219 6.261719 -10.199219 Z M 5.832031 -8.371094 C 7.496094 -8.371094 8.535156 -6.941406 8.535156 -5.007812 C 8.535156 -3.078125 7.496094 -1.644531 5.832031 -1.644531 C 4.203125 -1.644531 3.058594 -3.042969 3.058594 -5.007812 C 3.058594 -6.976562 4.203125 -8.371094 5.832031 -8.371094 Z M 5.832031 -8.371094 "/></g></g></g><g fill="#ffffff" fill-opacity="1"><g transform="translate(101.721977, 131.967084)"><g><path d="M 5.742188 0.195312 C 8.371094 0.195312 9.894531 -1.394531 10.484375 -3.308594 L 8.300781 -3.308594 C 7.945312 -2.414062 7.066406 -1.644531 5.796875 -1.644531 C 4.652344 -1.644531 3.703125 -2.324219 3.238281 -3.453125 C 3.058594 -3.757812 2.953125 -4.1875 2.898438 -4.5625 L 10.664062 -4.5625 L 10.664062 -5.097656 C 10.664062 -8.570312 8.246094 -10.179688 5.6875 -10.179688 C 2.398438 -10.179688 0.75 -7.585938 0.75 -4.957031 C 0.75 -2.003906 2.753906 0.195312 5.742188 0.195312 Z M 3.023438 -6.226562 C 3.078125 -6.496094 3.167969 -6.851562 3.382812 -7.175781 C 3.882812 -8.015625 4.722656 -8.460938 5.761719 -8.460938 C 6.761719 -8.460938 7.65625 -8.03125 8.140625 -7.175781 C 8.335938 -6.871094 8.425781 -6.511719 8.460938 -6.226562 Z M 3.023438 -6.226562 "/></g></g></g><g fill="#ffffff" fill-opacity="1"><g transform="translate(113.118458, 131.967084)"><g><path d="M 3.273438 0 L 3.273438 -4.832031 C 3.273438 -6.117188 3.542969 -6.960938 4.097656 -7.476562 C 4.527344 -7.90625 5.117188 -8.121094 5.941406 -8.121094 L 6.476562 -8.121094 L 6.476562 -10.179688 L 6.242188 -10.179688 C 5.007812 -10.179688 4.097656 -9.820312 3.273438 -8.75 L 3.273438 -10 L 1.164062 -10 L 1.164062 0 Z M 3.273438 0 "/></g></g></g><g fill="#ffffff" fill-opacity="1"><g transform="translate(119.952773, 131.967084)"><g><path d="M 2.21875 -11.289062 C 2.988281 -11.289062 3.597656 -11.824219 3.597656 -12.578125 C 3.597656 -13.328125 2.988281 -13.867188 2.21875 -13.867188 C 1.46875 -13.867188 0.839844 -13.328125 0.839844 -12.578125 C 0.839844 -11.824219 1.46875 -11.289062 2.21875 -11.289062 Z M 3.273438 0 L 3.273438 -10 L 1.164062 -10 L 1.164062 0 Z M 3.273438 0 "/></g></g></g><g fill="#ffffff" fill-opacity="1"><g transform="translate(124.371822, 131.967084)"><g><path d="M 6.496094 -10.984375 L 9.140625 -13.652344 L 6.871094 -13.652344 L 4.792969 -10.984375 Z M 5.777344 0.195312 C 8.785156 0.195312 10.824219 -1.96875 10.824219 -5.046875 C 10.824219 -8.050781 8.75 -10.179688 5.777344 -10.179688 C 2.808594 -10.179688 0.75 -8.050781 0.75 -5.046875 C 0.75 -1.933594 2.808594 0.195312 5.777344 0.195312 Z M 5.777344 -1.644531 C 4.113281 -1.644531 2.898438 -3.023438 2.898438 -5.046875 C 2.898438 -6.976562 4.097656 -8.355469 5.777344 -8.355469 C 7.460938 -8.355469 8.660156 -6.941406 8.660156 -5.046875 C 8.660156 -3.058594 7.460938 -1.644531 5.777344 -1.644531 Z M 5.777344 -1.644531 "/></g></g></g><g fill="#ffffff" fill-opacity="1"><g transform="translate(135.947209, 131.967084)"><g><path d="M 5.1875 0.195312 C 6.441406 0.195312 7.300781 -0.179688 8.175781 -1.359375 L 8.175781 0 L 10.289062 0 L 10.289062 -13.652344 L 8.175781 -13.652344 L 8.175781 -8.640625 C 7.28125 -9.839844 6.40625 -10.179688 5.1875 -10.179688 C 2.558594 -10.179688 0.789062 -8.050781 0.789062 -4.992188 C 0.789062 -1.933594 2.558594 0.195312 5.1875 0.195312 Z M 5.617188 -1.628906 C 3.953125 -1.628906 2.917969 -3.058594 2.917969 -4.992188 C 2.917969 -6.921875 3.953125 -8.355469 5.617188 -8.355469 C 7.246094 -8.355469 8.390625 -6.960938 8.390625 -4.992188 C 8.390625 -3.023438 7.246094 -1.628906 5.617188 -1.628906 Z M 5.617188 -1.628906 "/></g></g></g><g fill="#ffffff" fill-opacity="1"><g transform="translate(147.397361, 131.967084)"><g><path d="M 2.21875 -11.289062 C 2.988281 -11.289062 3.597656 -11.824219 3.597656 -12.578125 C 3.597656 -13.328125 2.988281 -13.867188 2.21875 -13.867188 C 1.46875 -13.867188 0.839844 -13.328125 0.839844 -12.578125 C 0.839844 -11.824219 1.46875 -11.289062 2.21875 -11.289062 Z M 3.273438 0 L 3.273438 -10 L 1.164062 -10 L 1.164062 0 Z M 3.273438 0 "/></g></g></g><g fill="#ffffff" fill-opacity="1"><g transform="translate(151.81641, 131.967084)"><g><path d="M 5.726562 0.195312 C 8.085938 0.195312 9.894531 -1.109375 10.359375 -3.308594 L 8.070312 -3.308594 C 7.800781 -2.253906 6.960938 -1.574219 5.726562 -1.574219 C 4.0625 -1.574219 2.898438 -2.953125 2.898438 -5.046875 C 2.898438 -7.066406 4.0625 -8.425781 5.726562 -8.425781 C 6.851562 -8.425781 7.675781 -7.855469 8.015625 -6.851562 L 10.304688 -6.851562 C 9.839844 -8.890625 8.085938 -10.179688 5.726562 -10.179688 C 2.753906 -10.179688 0.75 -8.050781 0.75 -5.046875 C 0.75 -1.933594 2.773438 0.195312 5.726562 0.195312 Z M 5.726562 0.195312 "/></g></g></g><g fill="#ffffff" fill-opacity="1"><g transform="translate(162.801394, 131.967084)"><g><path d="M 5.777344 0.195312 C 8.785156 0.195312 10.824219 -1.96875 10.824219 -5.046875 C 10.824219 -8.050781 8.75 -10.179688 5.777344 -10.179688 C 2.808594 -10.179688 0.75 -8.050781 0.75 -5.046875 C 0.75 -1.933594 2.808594 0.195312 5.777344 0.195312 Z M 5.777344 -1.644531 C 4.113281 -1.644531 2.898438 -3.023438 2.898438 -5.046875 C 2.898438 -6.976562 4.097656 -8.355469 5.777344 -8.355469 C 7.460938 -8.355469 8.660156 -6.941406 8.660156 -5.046875 C 8.660156 -3.058594 7.460938 -1.644531 5.777344 -1.644531 Z M 5.777344 -1.644531 "/></g></g></g><g fill="#ffffff" fill-opacity="1"><g transform="translate(174.376781, 131.967084)"><g/></g></g><g fill="#ffffff" fill-opacity="1"><g transform="translate(179.243103, 131.967084)"><g><path d="M 5.742188 0.195312 C 8.371094 0.195312 9.894531 -1.394531 10.484375 -3.308594 L 8.300781 -3.308594 C 7.945312 -2.414062 7.066406 -1.644531 5.796875 -1.644531 C 4.652344 -1.644531 3.703125 -2.324219 3.238281 -3.453125 C 3.058594 -3.757812 2.953125 -4.1875 2.898438 -4.5625 L 10.664062 -4.5625 L 10.664062 -5.097656 C 10.664062 -8.570312 8.246094 -10.179688 5.6875 -10.179688 C 2.398438 -10.179688 0.75 -7.585938 0.75 -4.957031 C 0.75 -2.003906 2.753906 0.195312 5.742188 0.195312 Z M 3.023438 -6.226562 C 3.078125 -6.496094 3.167969 -6.851562 3.382812 -7.175781 C 3.882812 -8.015625 4.722656 -8.460938 5.761719 -8.460938 C 6.761719 -8.460938 7.65625 -8.03125 8.140625 -7.175781 C 8.335938 -6.871094 8.425781 -6.511719 8.460938 -6.226562 Z M 3.023438 -6.226562 "/></g></g></g><g fill="#ffffff" fill-opacity="1"><g transform="translate(190.639583, 131.967084)"><g><path d="M 3.273438 0 L 3.273438 -4.8125 C 3.273438 -6.386719 3.472656 -7.226562 3.953125 -7.765625 C 4.3125 -8.195312 4.847656 -8.410156 5.582031 -8.410156 C 6.191406 -8.410156 6.636719 -8.265625 6.941406 -7.925781 C 7.300781 -7.53125 7.441406 -6.886719 7.441406 -5.851562 L 7.441406 0 L 9.570312 0 L 9.570312 -5.851562 C 9.570312 -6.726562 9.570312 -7.65625 9.125 -8.550781 C 8.675781 -9.464844 7.800781 -10.179688 6.066406 -10.179688 C 4.992188 -10.179688 4.152344 -9.820312 3.273438 -8.640625 L 3.273438 -10 L 1.164062 -10 L 1.164062 0 Z M 3.273438 0 "/></g></g></g><g fill="#ffffff" fill-opacity="1"><g transform="translate(201.284651, 131.967084)"><g/></g></g><g fill="#ffffff" fill-opacity="1"><g transform="translate(206.150972, 131.967084)"><g><path d="M 4.757812 0 L 4.757812 -1.769531 L 4.167969 -1.769531 C 3.417969 -1.769531 3.21875 -2.109375 3.21875 -2.863281 L 3.21875 -13.652344 L 1.109375 -13.652344 L 1.109375 -2.308594 C 1.109375 -0.589844 1.96875 0 3.453125 0 Z M 4.757812 0 "/></g></g></g><g fill="#ffffff" fill-opacity="1"><g transform="translate(211.393, 131.967084)"><g><path d="M 2.21875 -11.289062 C 2.988281 -11.289062 3.597656 -11.824219 3.597656 -12.578125 C 3.597656 -13.328125 2.988281 -13.867188 2.21875 -13.867188 C 1.46875 -13.867188 0.839844 -13.328125 0.839844 -12.578125 C 0.839844 -11.824219 1.46875 -11.289062 2.21875 -11.289062 Z M 3.273438 0 L 3.273438 -10 L 1.164062 -10 L 1.164062 0 Z M 3.273438 0 "/></g></g></g><g fill="#ffffff" fill-opacity="1"><g transform="translate(215.812049, 131.967084)"><g><path d="M 3.273438 0 L 3.273438 -4.8125 C 3.273438 -6.386719 3.472656 -7.226562 3.953125 -7.765625 C 4.3125 -8.195312 4.847656 -8.410156 5.582031 -8.410156 C 6.191406 -8.410156 6.636719 -8.265625 6.941406 -7.925781 C 7.300781 -7.53125 7.441406 -6.886719 7.441406 -5.851562 L 7.441406 0 L 9.570312 0 L 9.570312 -5.851562 C 9.570312 -6.726562 9.570312 -7.65625 9.125 -8.550781 C 8.675781 -9.464844 7.800781 -10.179688 6.066406 -10.179688 C 4.992188 -10.179688 4.152344 -9.820312 3.273438 -8.640625 L 3.273438 -10 L 1.164062 -10 L 1.164062 0 Z M 3.273438 0 "/></g></g></g><g fill="#ffffff" fill-opacity="1"><g transform="translate(226.457116, 131.967084)"><g><path d="M 5.742188 0.195312 C 8.371094 0.195312 9.894531 -1.394531 10.484375 -3.308594 L 8.300781 -3.308594 C 7.945312 -2.414062 7.066406 -1.644531 5.796875 -1.644531 C 4.652344 -1.644531 3.703125 -2.324219 3.238281 -3.453125 C 3.058594 -3.757812 2.953125 -4.1875 2.898438 -4.5625 L 10.664062 -4.5625 L 10.664062 -5.097656 C 10.664062 -8.570312 8.246094 -10.179688 5.6875 -10.179688 C 2.398438 -10.179688 0.75 -7.585938 0.75 -4.957031 C 0.75 -2.003906 2.753906 0.195312 5.742188 0.195312 Z M 3.023438 -6.226562 C 3.078125 -6.496094 3.167969 -6.851562 3.382812 -7.175781 C 3.882812 -8.015625 4.722656 -8.460938 5.761719 -8.460938 C 6.761719 -8.460938 7.65625 -8.03125 8.140625 -7.175781 C 8.335938 -6.871094 8.425781 -6.511719 8.460938 -6.226562 Z M 3.023438 -6.226562 "/></g></g></g><g fill="#ffffff" fill-opacity="1"><g transform="translate(237.853597, 131.967084)"><g><path d="M 4.007812 0.195312 C 4.902344 0.195312 5.6875 0.0546875 6.316406 -0.359375 C 6.710938 -0.609375 7.050781 -0.964844 7.316406 -1.429688 L 7.316406 0 L 9.429688 0 L 9.429688 -5.421875 C 9.429688 -6.566406 9.429688 -8.140625 8.320312 -9.179688 C 7.566406 -9.859375 6.476562 -10.179688 5.3125 -10.179688 C 3.363281 -10.179688 1.484375 -9.105469 1.128906 -6.851562 L 3.238281 -6.851562 C 3.433594 -7.871094 4.292969 -8.480469 5.296875 -8.480469 C 5.941406 -8.480469 6.441406 -8.285156 6.796875 -7.925781 C 7.136719 -7.566406 7.316406 -7.066406 7.335938 -6.386719 L 4.167969 -5.796875 C 3.257812 -5.617188 2.449219 -5.367188 1.84375 -4.921875 C 1.164062 -4.417969 0.75 -3.703125 0.75 -2.71875 C 0.75 -0.859375 2.09375 0.195312 4.007812 0.195312 Z M 4.472656 -1.519531 C 3.523438 -1.519531 2.863281 -1.96875 2.863281 -2.773438 C 2.863281 -3.148438 2.988281 -3.433594 3.21875 -3.667969 C 3.523438 -3.953125 3.972656 -4.132812 4.6875 -4.277344 L 7.351562 -4.792969 C 7.351562 -3.363281 7.03125 -2.414062 5.851562 -1.824219 C 5.4375 -1.628906 4.972656 -1.519531 4.472656 -1.519531 Z M 4.472656 -1.519531 "/></g></g></g></svg>