<svg xmlns="http://www.w3.org/2000/svg" xmlns:xlink="http://www.w3.org/1999/xlink" width="500" zoomAndPan="magnify" viewBox="0 0 375 187.499995" height="250" preserveAspectRatio="xMidYMid meet" version="1.0"><defs><g/><clipPath id="25075219c9"><path d="M 38 48 L 130 48 L 130 138.746094 L 38 138.746094 Z M 38 48 " clip-rule="nonzero"/></clipPath></defs><g clip-path="url(#25075219c9)"><path fill="#5ce1e6" d="M 127.914062 77.359375 C 127.851562 77.257812 127.769531 77.171875 127.707031 77.070312 C 126.339844 75.332031 124.042969 74.378906 121.867188 74.625 C 119.464844 74.894531 117.6875 76.074219 116.734375 76.757812 C 116.734375 76.757812 110.875 80.921875 101.289062 84.917969 C 99.652344 85.601562 99.382812 85.332031 99.320312 85.246094 C 99.261719 85.164062 99.238281 85.039062 99.300781 84.875 C 100.480469 80.796875 101.765625 76.71875 102.53125 72.554688 C 103.460938 67.941406 104.042969 63.261719 104.269531 58.5625 C 104.394531 56.179688 104.375 53.652344 103.109375 51.644531 C 101.144531 48.5 96.113281 47.917969 93.460938 50.527344 C 91.804688 52.164062 91.207031 54.566406 90.710938 56.84375 C 90.066406 59.742188 89.46875 62.660156 88.929688 65.578125 C 88.660156 67.050781 88.453125 68.539062 88.265625 70.03125 C 88.019531 71.996094 87.914062 73.28125 87.417969 73.382812 C 87.230469 73.425781 86.898438 73.363281 86.363281 72.433594 C 85.800781 71.480469 85.265625 70.527344 84.683594 69.597656 C 83.628906 67.855469 82.53125 66.160156 81.371094 64.503906 C 79.074219 61.167969 76.546875 57.980469 73.816406 54.957031 C 72.199219 53.15625 70.417969 51.375 68.164062 50.546875 C 66.339844 49.886719 64.148438 50.011719 62.574219 51.191406 C 60.894531 52.410156 59.445312 53.46875 59.613281 55.808594 C 59.714844 57.257812 60.378906 58.621094 61.042969 59.925781 C 62.261719 62.265625 63.609375 64.566406 65.058594 66.78125 C 65.078125 66.820312 65.988281 68.148438 67.769531 70.777344 C 69.074219 72.679688 70.152344 74.273438 69.964844 74.417969 C 69.882812 74.480469 69.675781 74.171875 69.03125 73.859375 C 68.410156 73.570312 67.8125 73.28125 67.191406 73.03125 C 65.949219 72.535156 64.683594 72.082031 63.402344 71.667969 C 60.855469 70.816406 58.246094 70.132812 55.617188 69.597656 C 54 69.265625 52.386719 68.996094 50.773438 68.789062 C 48.824219 68.539062 46.777344 68.375 44.953125 69.097656 C 42.882812 69.925781 41.3125 71.914062 40.980469 74.128906 C 40.667969 76.34375 41.601562 78.683594 43.359375 80.070312 C 44.746094 81.148438 46.507812 81.625 48.203125 82.082031 C 54.0625 83.695312 59.800781 85.703125 65.390625 88.125 C 64.890625 87.917969 62.800781 88.996094 62.261719 89.179688 C 61.125 89.59375 60.007812 90.03125 58.886719 90.484375 C 56.652344 91.398438 54.457031 92.410156 52.324219 93.507812 C 48.328125 95.558594 43.546875 97.917969 40.566406 101.375 C 38.390625 103.921875 37.957031 107.648438 40.191406 110.320312 C 41.640625 112.039062 44.003906 112.949219 46.21875 112.617188 C 48.164062 112.328125 49.882812 111.1875 51.558594 110.152344 C 55.824219 107.503906 60.359375 105.289062 65.078125 103.550781 C 66.652344 102.96875 68.121094 101.789062 68.679688 102.308594 C 69.261719 102.847656 68.328125 104.710938 67.996094 105.414062 C 63.816406 114.109375 63.152344 125.453125 63.050781 126.550781 C 62.71875 129.800781 62.675781 133.425781 64.789062 135.910156 C 67.480469 139.078125 73.316406 138.558594 75.410156 134.957031 C 76.300781 133.425781 76.527344 131.601562 76.777344 129.84375 C 77.5625 124.292969 78.289062 121.519531 78.289062 121.519531 C 79.445312 114.5625 79.738281 113.34375 80.296875 113.300781 C 80.855469 113.238281 81.125 114.441406 83.089844 118.042969 C 83.585938 118.972656 84.644531 120.878906 86.132812 123.175781 C 88.265625 126.488281 90.625 129.617188 93.234375 132.574219 C 94.953125 134.523438 96.941406 136.488281 99.507812 136.964844 C 103.253906 137.628906 107.148438 134.109375 106.859375 130.320312 C 106.734375 128.828125 106.359375 127.753906 105.265625 125.847656 C 103.027344 121.976562 97.042969 114.066406 96.835938 113.113281 C 96.835938 113.113281 96.835938 113.09375 96.835938 113.074219 C 97.003906 112.699219 101.351562 114.648438 106.421875 116.21875 C 107.480469 116.550781 111.453125 117.585938 116.628906 118.414062 C 118.578125 118.726562 120.648438 118.953125 122.511719 118.269531 C 126.175781 116.902344 127.664062 111.644531 125.222656 108.582031 C 123.960938 106.988281 122.425781 106.136719 119.757812 105.246094 C 108.636719 101.582031 103.046875 101.085938 102.945312 99.71875 C 102.863281 98.683594 106.050781 98.269531 113.214844 94.9375 C 113.628906 94.75 118.058594 92.472656 123.398438 88.953125 C 125.59375 87.503906 127.871094 85.808594 128.761719 83.324219 C 129.425781 81.375 129.113281 79.078125 127.914062 77.359375 Z M 127.914062 77.359375 " fill-opacity="1" fill-rule="nonzero"/><path fill="#5ce1e6" d="M 69.652344 138.519531 C 67.5625 138.519531 65.636719 137.691406 64.394531 136.242188 C 62.160156 133.589844 62.199219 129.824219 62.53125 126.488281 C 62.53125 126.425781 62.550781 126.324219 62.550781 126.15625 C 63.214844 117.917969 64.976562 110.464844 67.519531 105.164062 L 67.582031 105.039062 C 68.410156 103.28125 68.390625 102.804688 68.328125 102.660156 C 68.101562 102.617188 67.375 102.992188 66.878906 103.261719 C 66.382812 103.507812 65.824219 103.796875 65.265625 104.003906 C 60.585938 105.722656 56.074219 107.9375 51.847656 110.566406 L 51.476562 110.796875 C 49.882812 111.789062 48.226562 112.824219 46.300781 113.09375 C 43.917969 113.445312 41.371094 112.472656 39.800781 110.609375 C 37.523438 107.875 37.667969 103.921875 40.171875 101.003906 C 43.089844 97.628906 47.582031 95.308594 51.558594 93.28125 L 52.078125 93.011719 C 54.25 91.894531 56.464844 90.878906 58.679688 89.96875 C 59.882812 89.492188 60.980469 89.058594 62.078125 88.664062 C 62.199219 88.621094 62.449219 88.519531 62.71875 88.394531 C 63.089844 88.230469 63.441406 88.085938 63.734375 87.960938 C 58.679688 85.847656 53.421875 84.027344 48.058594 82.554688 C 46.402344 82.101562 44.519531 81.605469 43.027344 80.464844 C 41.125 78.972656 40.109375 76.449219 40.460938 74.046875 C 40.8125 71.644531 42.511719 69.511719 44.746094 68.601562 C 46.714844 67.816406 48.910156 68.023438 50.8125 68.25 C 52.429688 68.457031 54.085938 68.726562 55.699219 69.058594 C 58.433594 69.617188 61.0625 70.320312 63.546875 71.148438 C 64.828125 71.5625 66.113281 72.019531 67.355469 72.535156 C 67.8125 72.722656 68.265625 72.929688 68.722656 73.136719 C 68.289062 72.453125 67.726562 71.644531 67.3125 71.046875 C 66.363281 69.636719 65.65625 68.601562 65.203125 67.941406 C 64.746094 67.257812 64.621094 67.089844 64.582031 67.027344 C 63.132812 64.8125 61.765625 62.496094 60.542969 60.132812 C 59.820312 58.707031 59.15625 57.320312 59.054688 55.808594 C 58.867188 53.179688 60.503906 51.996094 62.222656 50.734375 C 63.835938 49.535156 66.15625 49.246094 68.289062 50.03125 C 70.730469 50.921875 72.59375 52.847656 74.148438 54.585938 C 76.878906 57.628906 79.445312 60.859375 81.746094 64.191406 C 82.863281 65.785156 83.960938 67.464844 85.078125 69.304688 C 85.492188 69.96875 85.90625 70.671875 86.300781 71.355469 C 86.445312 71.625 86.609375 71.894531 86.753906 72.164062 C 86.984375 72.554688 87.148438 72.742188 87.230469 72.804688 C 87.398438 72.453125 87.519531 71.4375 87.625 70.527344 L 87.6875 69.949219 C 87.914062 68.125 88.121094 66.738281 88.347656 65.476562 C 88.867188 62.703125 89.46875 59.761719 90.128906 56.71875 C 90.667969 54.234375 91.308594 51.851562 93.027344 50.15625 C 94.394531 48.808594 96.445312 48.167969 98.554688 48.417969 C 100.667969 48.664062 102.46875 49.742188 103.484375 51.375 C 104.851562 53.570312 104.851562 56.242188 104.726562 58.601562 C 104.496094 63.324219 103.917969 68.0625 102.988281 72.679688 C 102.34375 76.199219 101.308594 79.699219 100.316406 83.074219 C 100.148438 83.675781 99.964844 84.253906 99.796875 84.855469 C 100.003906 84.8125 100.398438 84.730469 101.039062 84.460938 C 110.460938 80.527344 116.320312 76.40625 116.382812 76.367188 C 117.519531 75.539062 119.34375 74.417969 121.765625 74.152344 C 124.125 73.882812 126.589844 74.917969 128.058594 76.78125 L 128.101562 76.84375 C 128.121094 76.882812 128.140625 76.902344 128.160156 76.945312 C 128.203125 76.988281 128.246094 77.050781 128.285156 77.132812 C 129.570312 78.972656 129.921875 81.417969 129.195312 83.550781 C 128.246094 86.242188 125.824219 88 123.628906 89.449219 C 118.222656 93.011719 113.816406 95.269531 113.359375 95.476562 C 110.273438 96.902344 107.957031 97.792969 106.257812 98.4375 C 104.871094 98.972656 103.566406 99.472656 103.402344 99.738281 C 103.566406 100.195312 106.152344 100.878906 108.679688 101.542969 C 111.414062 102.265625 115.140625 103.261719 119.859375 104.8125 C 122.800781 105.785156 124.289062 106.71875 125.574219 108.3125 C 126.816406 109.863281 127.210938 112.078125 126.609375 114.234375 C 126.007812 116.40625 124.519531 118.105469 122.632812 118.808594 C 120.605469 119.554688 118.410156 119.285156 116.484375 118.972656 C 111.101562 118.105469 107.167969 117.070312 106.195312 116.757812 C 103.917969 116.054688 101.804688 115.269531 100.089844 114.648438 C 99.199219 114.316406 98.308594 113.984375 97.664062 113.777344 C 98.285156 114.769531 99.488281 116.511719 100.605469 118.082031 C 102.425781 120.691406 104.496094 123.652344 105.636719 125.621094 C 106.753906 127.566406 107.167969 128.703125 107.292969 130.296875 C 107.4375 132.246094 106.566406 134.253906 104.972656 135.722656 C 103.359375 137.171875 101.269531 137.855469 99.34375 137.503906 C 96.671875 137.007812 94.601562 135.019531 92.78125 132.949219 C 90.171875 129.988281 87.769531 126.800781 85.636719 123.488281 C 84.125 121.167969 83.070312 119.242188 82.574219 118.3125 C 81.867188 117.027344 81.371094 116.035156 81.019531 115.308594 C 80.710938 114.6875 80.441406 114.148438 80.273438 113.921875 C 79.921875 114.605469 79.40625 117.585938 78.722656 121.625 L 78.722656 121.664062 C 78.722656 121.6875 77.996094 124.480469 77.230469 129.925781 L 77.210938 130.132812 C 76.960938 131.871094 76.714844 133.671875 75.804688 135.226562 C 74.746094 137.070312 72.675781 138.289062 70.316406 138.496094 C 70.128906 138.519531 69.882812 138.519531 69.652344 138.519531 Z M 68.328125 101.664062 C 68.597656 101.664062 68.824219 101.75 69.03125 101.933594 C 69.796875 102.640625 69.175781 104.148438 68.515625 105.515625 L 68.453125 105.640625 C 65.949219 110.835938 64.230469 118.167969 63.585938 126.261719 C 63.566406 126.40625 63.566406 126.53125 63.566406 126.59375 C 63.257812 129.71875 63.195312 133.21875 65.183594 135.558594 C 66.339844 136.921875 68.246094 137.628906 70.273438 137.441406 C 72.304688 137.253906 74.0625 136.21875 74.953125 134.6875 C 75.761719 133.300781 75.988281 131.601562 76.21875 129.96875 L 76.238281 129.761719 C 76.984375 124.441406 77.6875 121.707031 77.75 121.394531 C 78.308594 118.082031 78.679688 115.910156 78.992188 114.6875 C 79.238281 113.671875 79.507812 112.824219 80.234375 112.785156 C 80.9375 112.699219 81.246094 113.320312 81.992188 114.832031 C 82.34375 115.558594 82.84375 116.53125 83.523438 117.792969 C 84.023438 118.726562 85.058594 120.609375 86.546875 122.886719 C 88.660156 126.15625 91.039062 129.304688 93.609375 132.222656 C 95.304688 134.148438 97.230469 136.011719 99.589844 136.449219 C 101.183594 136.738281 102.964844 136.15625 104.351562 134.914062 C 105.71875 133.671875 106.464844 131.976562 106.339844 130.359375 C 106.214844 128.933594 105.863281 127.9375 104.808594 126.117188 C 103.691406 124.191406 101.640625 121.25 99.839844 118.664062 C 97.4375 115.226562 96.445312 113.757812 96.339844 113.238281 L 96.320312 113.175781 L 96.320312 112.96875 L 96.363281 112.867188 C 96.609375 112.308594 97.3125 112.535156 98.019531 112.742188 C 98.640625 112.949219 99.507812 113.257812 100.523438 113.632812 C 102.21875 114.253906 104.3125 115.019531 106.566406 115.722656 C 107.75 116.097656 111.785156 117.109375 116.714844 117.898438 C 118.492188 118.1875 120.542969 118.433594 122.324219 117.773438 C 123.898438 117.191406 125.140625 115.722656 125.65625 113.878906 C 126.152344 112.058594 125.84375 110.195312 124.808594 108.890625 C 123.667969 107.460938 122.304688 106.632812 119.589844 105.722656 C 114.890625 104.171875 111.183594 103.199219 108.472656 102.472656 C 104.269531 101.355469 102.511719 100.898438 102.425781 99.738281 C 102.34375 98.765625 103.402344 98.351562 105.945312 97.402344 C 107.625 96.757812 109.941406 95.890625 112.988281 94.460938 C 113.402344 94.273438 117.851562 91.976562 123.109375 88.519531 C 125.160156 87.171875 127.417969 85.515625 128.265625 83.136719 C 128.886719 81.335938 128.574219 79.222656 127.480469 77.648438 L 127.457031 77.628906 C 127.4375 77.585938 127.417969 77.566406 127.394531 77.523438 C 127.355469 77.484375 127.3125 77.421875 127.273438 77.359375 C 126.007812 75.785156 123.917969 74.894531 121.910156 75.125 C 119.734375 75.371094 118.078125 76.40625 117.023438 77.152344 C 116.960938 77.195312 111 81.398438 101.476562 85.371094 C 100.027344 85.972656 99.261719 86.015625 98.886719 85.539062 C 98.722656 85.308594 98.679688 85 98.785156 84.6875 C 98.96875 84.046875 99.15625 83.382812 99.34375 82.742188 C 100.335938 79.386719 101.351562 75.910156 101.992188 72.433594 C 102.925781 67.855469 103.503906 63.179688 103.730469 58.5 C 103.855469 56.304688 103.855469 53.820312 102.65625 51.894531 C 101.804688 50.546875 100.253906 49.617188 98.472656 49.410156 C 96.691406 49.203125 94.933594 49.742188 93.792969 50.859375 C 92.28125 52.351562 91.683594 54.585938 91.183594 56.925781 C 90.523438 59.949219 89.921875 62.886719 89.40625 65.640625 C 89.175781 66.90625 88.96875 68.25 88.742188 70.070312 L 88.679688 70.652344 C 88.433594 72.617188 88.308594 73.695312 87.5 73.882812 C 86.777344 74.046875 86.238281 73.28125 85.886719 72.679688 C 85.742188 72.410156 85.574219 72.140625 85.429688 71.875 C 85.035156 71.210938 84.644531 70.507812 84.230469 69.84375 C 83.109375 68.023438 82.035156 66.367188 80.9375 64.773438 C 78.660156 61.480469 76.132812 58.269531 73.421875 55.269531 C 71.953125 53.632812 70.191406 51.8125 67.976562 51.003906 C 66.175781 50.339844 64.207031 50.570312 62.882812 51.582031 C 61.269531 52.765625 59.984375 53.695312 60.128906 55.746094 C 60.234375 57.050781 60.8125 58.292969 61.496094 59.65625 C 62.71875 61.976562 64.042969 64.273438 65.492188 66.46875 L 65.511719 66.492188 C 65.574219 66.574219 65.78125 66.90625 66.09375 67.339844 C 66.546875 68 67.253906 69.035156 68.203125 70.445312 C 68.847656 71.375 69.445312 72.265625 69.882812 72.949219 C 70.398438 73.757812 70.792969 74.417969 70.296875 74.792969 C 69.945312 75.0625 69.589844 74.792969 69.445312 74.6875 C 69.300781 74.585938 69.136719 74.441406 68.824219 74.296875 L 68.535156 74.152344 C 68.019531 73.902344 67.519531 73.675781 67.023438 73.46875 C 65.804688 72.96875 64.539062 72.515625 63.277344 72.121094 C 60.835938 71.3125 58.226562 70.609375 55.554688 70.070312 C 53.960938 69.742188 52.34375 69.472656 50.75 69.265625 C 48.972656 69.035156 46.921875 68.851562 45.183594 69.535156 C 43.277344 70.300781 41.828125 72.121094 41.519531 74.152344 C 41.226562 76.199219 42.097656 78.332031 43.710938 79.617188 C 45.015625 80.628906 46.714844 81.085938 48.371094 81.519531 C 54.292969 83.15625 60.089844 85.1875 65.617188 87.585938 C 65.78125 87.730469 65.863281 87.960938 65.804688 88.167969 C 65.71875 88.414062 65.472656 88.558594 65.203125 88.539062 L 65.242188 88.558594 C 64.933594 88.519531 63.648438 89.097656 63.152344 89.304688 C 62.84375 89.449219 62.59375 89.554688 62.429688 89.617188 C 61.351562 90.007812 60.253906 90.421875 59.074219 90.921875 C 56.902344 91.8125 54.707031 92.824219 52.550781 93.921875 L 52.015625 94.191406 C 48.121094 96.179688 43.734375 98.4375 40.9375 101.664062 C 38.765625 104.210938 38.621094 107.609375 40.566406 109.945312 C 41.910156 111.542969 44.085938 112.371094 46.113281 112.058594 C 47.8125 111.808594 49.386719 110.835938 50.894531 109.886719 L 51.269531 109.65625 C 55.554688 106.988281 60.128906 104.75 64.871094 103.011719 C 65.390625 102.824219 65.886719 102.554688 66.382812 102.308594 C 67.128906 101.996094 67.789062 101.664062 68.328125 101.664062 Z M 68.328125 101.664062 " fill-opacity="1" fill-rule="nonzero"/></g><g fill="#233876" fill-opacity="1"><g transform="translate(149.492574, 141.110611)"><g><path d="M 17.351562 -75.65625 C 23.84375 -75.65625 29.214844 -79.652344 29.214844 -86.390625 C 29.214844 -93.007812 23.84375 -97.253906 17.351562 -97.253906 C 10.863281 -97.253906 5.492188 -93.007812 5.492188 -86.390625 C 5.492188 -79.652344 10.863281 -75.65625 17.351562 -75.65625 Z M 27.839844 0 L 27.839844 -70.785156 L 6.867188 -70.785156 L 6.867188 0 Z M 27.839844 0 "/></g></g></g><g fill="#233876" fill-opacity="1"><g transform="translate(181.078088, 141.110611)"><g><path d="M 27.839844 0 L 27.839844 -39.824219 C 27.839844 -45.941406 28.714844 -49.4375 30.460938 -51.808594 C 32.335938 -54.433594 35.457031 -55.429688 39.824219 -55.429688 C 43.320312 -55.429688 45.816406 -54.679688 47.566406 -52.808594 C 49.6875 -50.5625 50.5625 -46.816406 50.5625 -39.824219 L 50.5625 0 L 71.535156 0 L 71.535156 -39.574219 C 71.535156 -48.316406 71.535156 -53.933594 68.789062 -60.050781 C 65.917969 -66.542969 59.925781 -72.285156 45.941406 -72.285156 C 38.453125 -72.285156 32.585938 -70.285156 27.839844 -63.171875 L 27.839844 -70.785156 L 6.867188 -70.785156 L 6.867188 0 Z M 27.839844 0 "/></g></g></g><g fill="#233876" fill-opacity="1"><g transform="translate(255.859588, 141.110611)"><g><path d="M 40.824219 1.5 C 58.550781 1.5 72.160156 -8.113281 75.65625 -24.46875 L 52.808594 -24.46875 C 51.4375 -18.601562 47.941406 -15.230469 40.824219 -15.230469 C 31.460938 -15.230469 25.59375 -22.972656 25.59375 -35.832031 C 25.59375 -48.191406 31.460938 -55.679688 40.824219 -55.679688 C 47.066406 -55.679688 50.6875 -52.933594 52.558594 -47.191406 L 75.53125 -47.191406 C 71.910156 -62.546875 58.675781 -72.285156 40.824219 -72.285156 C 18.601562 -72.285156 3.996094 -57.554688 3.996094 -35.832031 C 3.996094 -13.234375 18.726562 1.5 40.824219 1.5 Z M 40.824219 1.5 "/></g></g></g></svg>